<svg xmlns="http://www.w3.org/2000/svg" xmlns:xlink="http://www.w3.org/1999/xlink" width="98.869" height="79.616" viewBox="0 0 98.869 79.616"><defs><linearGradient id="a" x1="0.43" y1="2.721" x2="0.576" y2="-2.01" gradientUnits="objectBoundingBox"><stop offset="0" stop-color="#d8d8d8"/><stop offset="0.3" stop-color="#ebebeb"/><stop offset="0.94" stop-color="#fff"/><stop offset="1" stop-color="#fff"/></linearGradient></defs><g transform="translate(0 -0.004)" style="isolation:isolate"><path d="M60.83,41.85h0L96.42,21.41c2.42-1.51,3.51.28,1.09,1.78l-32.59,21a.58.58,0,0,1-.23.74L55,50.66l11.88-.11a.27.27,0,0,1,.26.35.43.43,0,0,1-.4.35l-12.92.12v.09a2.15,2.15,0,0,1-.22.93,146.4,146.4,0,0,1,20.65,6.53c4.78,1.84,9.18,3.72,12.86,5.46l.15.07h0l.12.05h.07l.12.05.45.22h0l.12.05.11.06.11.05h0l.2.1h.11l.11.06h0l.83.42h.06l.88.44h0c4.79,2.47,7.63,4.47,7.29,5.34-.53,1.4-9-.5-19.84-4.32C87.76,72.94,94.38,78,93.66,79.32c-.85,1.54-12-3-24.83-10.13C58.4,63.4,50,57.68,47.7,54.9l-1.37.8.6.33a.25.25,0,0,1,.14.23.29.29,0,0,1-.13.24L44.44,58a1,1,0,0,1-1.07,0l-.53-.29-1.64,1a2.2,2.2,0,0,1-2.23,0L35.8,56.8a.54.54,0,0,1-.28-.49.56.56,0,0,1,.29-.49l1.72-1-.8-.44a.25.25,0,0,1-.14-.23.27.27,0,0,1,.14-.24l2.64-1.54a.9.9,0,0,1,.9,0l.76.43.73-.43c-4.49-1.62-12-5.4-20.25-10.31C8.88,34.52-.63,27.18.28,25.66,1,24.49,7.78,27.18,16.7,32l.12.07.12.06.72.39.12.07.12.06.73.4.12.07.12.07.54.29C12.54,27.12,8.26,21.92,9.26,20.8c.69-.77,3.75.56,8,3.3h.1l.09.06h0l.09.06.09.06.1.06.18.12.1.06.67.45.09.06.1.07c.33.21.66.44,1,.67l.1.07.1.07.1.07.1.07.11.07.1.07.1.07h.1l.11.08.1.07.31.22.11.07.1.08.07.05h0l.1.08.11.07.1.08.08.06h0l.1.08.11.08.11.08.1.07.11.08.11.08.11.08.1.08h0L23,28l.33.24h0l.1.07.33.24h0c2.12,1.58,4.36,3.34,6.64,5.23,7,5.81,12.64,11.4,15.19,14.88a7.56,7.56,0,0,1,2.78-.54l-1-6.11a.43.43,0,0,1,.28-.45.27.27,0,0,1,.39.2l1.09,6.28L59.48,42a1.57,1.57,0,0,1,1.35-.15Z" fill="#57295e" opacity="0.5" style="mix-blend-mode:multiply;isolation:isolate"/><path d="M66.48,51.24a.5.5,0,0,1-.28-.1l-7.41-6.33-7.73-1.22a.43.43,0,1,1,.13-.85L59,44a.4.4,0,0,1,.21.09l7.51,6.41a.44.44,0,0,1,0,.61.43.43,0,0,1-.24.13Z" fill="#1f1f1f"/><path d="M47.27,40.74c2,0,3.79.84,4.36,2h.19v.62a1.55,1.55,0,0,1,0,.22c0,1.56-2,2.83-4.56,2.83s-4.56-1.27-4.56-2.83v-.84h.2C43.48,41.58,45.22,40.74,47.27,40.74Z" fill="#666" fill-rule="evenodd"/><path d="M47.27,45.35c2.51,0,4.56-1.27,4.56-2.83s-2-2.83-4.56-2.83S42.71,41,42.71,42.52,44.76,45.35,47.27,45.35Z" fill="#1f1f1f" fill-rule="evenodd"/><path d="M39.76,51.16h0a.43.43,0,0,1-.37-.48L40.27,43a.44.44,0,0,1,.55-.36l4.32,1.26a.43.43,0,0,1-.24.82l-3.83-1.11-.88,7.16A.43.43,0,0,1,39.76,51.16Z" fill="#1f1f1f"/><path d="M61.84,27.54a2.1,2.1,0,0,1-2.93-.66,2.2,2.2,0,0,1,.79-3L96.35,2.8c2.42-1.51,3.51.28,1.09,1.78Z" fill="#363636"/><path d="M35.45,46l3.39,2c5-2.38,8.52-2.27,8.48-6.87.14-2.59.2-3.62.33-6.21L61.44,26.6c.11-.57,1.35-1.21,1.44-2A4.33,4.33,0,0,0,60,23L37.72,35.71c-2.12,1.2-2.57,5.54-3.14,8.34l.47,1.39a1,1,0,0,0,.4.56Z" fill-rule="evenodd" fill="url(#a)"/><path d="M35.22,46.18,38,47.79c.77-.63,1.93,0,2.56-.6l-6-3.1.24,1.49A.8.8,0,0,0,35.22,46.18Z" fill="#979797" fill-rule="evenodd"/><path d="M42.61,48.25l7.16-4.88a5.84,5.84,0,0,0,2.51-3.7L52.65,38a6.39,6.39,0,0,1,2.13-3.61L62,29a2.79,2.79,0,0,0,.92-2.46v-2L41,38.57c-2.59,1.65-2.22,3.64-2.92,7.3v1.92C38.51,48.24,41.68,48.88,42.61,48.25Z" fill="#afafaf" fill-rule="evenodd"/><path d="M94.22,6.66c.2-1-.93-2.1-2.4-1.25L96.35,2.8c2.42-1.51,3.51.28,1.09,1.78Z" fill="#73cafc" fill-rule="evenodd"/><path d="M24.57,16C37.2,23.51,46.7,30.85,45.8,32.36S33.92,29,21.29,21.47-.85,6.6.06,5.08,11.94,8.44,24.57,16Z" fill="#fff" fill-rule="evenodd" opacity="0.51"/><path d="M30.22,13.25C40.62,21.88,48,30,46.73,31.46s-10.77-4.4-21.17-13S7.76,1.65,9,.22,19.81,4.62,30.22,13.25Z" fill="#fff" fill-rule="evenodd" opacity="0.51"/><path d="M47,31.23a2.19,2.19,0,0,1,2,.9h.09v.38c0,.71-.92,1.28-2.06,1.28S45,33.22,45,32.51v-.38h0A2.21,2.21,0,0,1,47,31.23Z" fill="#1f1f1f" fill-rule="evenodd"/><path d="M47,33.32c1.14,0,2.06-.58,2.06-1.28s-.92-1.29-2.06-1.29-2,.58-2,1.25S45.88,33.32,47,33.32Z" fill="#1f1f1f" fill-rule="evenodd"/><path d="M10.18,9.41l1.16-.67c2.23,1.09,4.7,2.38,7.31,3.83l-1.3.79Z" fill="#73cafc" fill-rule="evenodd"/><path d="M15.94,4.08l1.15-.57C19,4.75,21.22,6.27,23.57,8l-.86.45Z" fill="#73cafc" fill-rule="evenodd"/><path d="M71.72,43C84.57,50.15,94.3,57.19,93.45,58.73s-12-3-24.84-10.12S46,34.43,46.88,32.89,58.86,35.88,71.72,43Z" fill="#fff" fill-rule="evenodd" opacity="0.51"/><path d="M74,38.33c13.73,5.29,24.34,10.91,23.7,12.56s-12.27-1.3-26-6.59S47.39,33.4,48,31.75,60.3,33.05,74,38.33Z" fill="#fff" fill-rule="evenodd" opacity="0.51"/><path d="M47,30.25a2.69,2.69,0,0,1,2.43,1.12h.1v.34a.49.49,0,0,1,0,.12c0,.87-1.14,1.58-2.54,1.58s-2.54-.71-2.54-1.58v-.46h.11A2.69,2.69,0,0,1,47,30.25Z" fill="#afafaf" fill-rule="evenodd"/><path d="M47,32.82c1.4,0,2.54-.71,2.54-1.58S48.42,29.66,47,29.66s-2.54.71-2.54,1.58S45.62,32.82,47,32.82Z" fill="#e3e3e3" fill-rule="evenodd"/><path d="M77.84,47.92l1.27-.6c2.66,1.62,5.06,3.17,7.11,4.59l-1.35.67Z" fill="#73cafc" fill-rule="evenodd"/><path d="M81.8,42.76,82.92,42c2.82,1.24,5.37,2.45,7.52,3.55l-1,.7Z" fill="#73cafc" fill-rule="evenodd"/><path d="M56.34,61a.45.45,0,0,1-.42-.34L53.68,50.15l-4.87-4a.43.43,0,0,1-.06-.6.42.42,0,0,1,.6-.07l5,4a.44.44,0,0,1,.15.25l2.27,10.62a.42.42,0,0,1-.33.51Z" fill="#1f1f1f"/><path d="M62.3,57.36a.44.44,0,0,1-.37-.21l-5.28-8.88-6-3.12a.43.43,0,0,1,.4-.76l6.09,3.18a.37.37,0,0,1,.17.16l5.35,9a.44.44,0,0,1-.15.59.43.43,0,0,1-.21.04Z" fill="#1f1f1f"/><path d="M54,50.63a.67.67,0,1,0-.67-.67A.67.67,0,0,0,54,50.63Z" fill="#73cafc" fill-rule="evenodd"/><path d="M57,48.62a.67.67,0,1,0-.67-.67A.67.67,0,0,0,57,48.62Z" fill="#73cafc" fill-rule="evenodd"/><path d="M59,45.07a.67.67,0,1,0-.67-.67.68.68,0,0,0,.67.67Z" fill="#73cafc" fill-rule="evenodd"/><path d="M40.66,39.52l4.55-2.61v8.51l-4.55,2.62Z" fill="#4d4d4d" fill-rule="evenodd"/><path d="M46.48,44.81a2.54,2.54,0,0,1-2.29-.68V37.98l.7-.38a5.63,5.63,0,0,1,2.32,2.74C48.12,42.4,47.78,44.4,46.48,44.81Z" fill="#88f1f1" fill-rule="evenodd"/><path d="M45.78,45.19A2.08,2.08,0,0,1,44.19,45V38a5.73,5.73,0,0,1,2.32,2.74C47.42,42.78,47.08,44.79,45.78,45.19Z" fill="#5ea4da" fill-rule="evenodd"/><path d="M45.45,45.39a2.54,2.54,0,0,1-2.29-.68V38.56l.7-.38a5.68,5.68,0,0,1,2.32,2.74C47.09,43,46.75,45,45.45,45.39Z" fill="#88f1f1" fill-rule="evenodd"/><path d="M44.74,45.78a2.11,2.11,0,0,1-1.58-.22v-7A5.73,5.73,0,0,1,45.5,41.3C46.39,43.36,46.05,45.37,44.74,45.78Z" fill="#5ea4da" fill-rule="evenodd"/><path d="M44.42,46a2.54,2.54,0,0,1-2.29-.68V39.17l.7-.38a5.73,5.73,0,0,1,2.32,2.74C46.06,43.56,45.72,45.56,44.42,46Z" fill="#88f1f1" fill-rule="evenodd"/><path d="M43.71,46.36a2.11,2.11,0,0,1-1.58-.22v-7a5.71,5.71,0,0,1,2.32,2.73C45.36,43.94,45,46,43.71,46.36Z" fill="#5ea4da" fill-rule="evenodd"/><path d="M43.38,46.55a2.53,2.53,0,0,1-2.28-.68V39.73l.71-.39a5.73,5.73,0,0,1,2.32,2.74C45,44.14,44.69,46.14,43.38,46.55Z" fill="#88f1f1" fill-rule="evenodd"/><path d="M42.68,46.94a2.1,2.1,0,0,1-1.58-.22v-7a5.61,5.61,0,0,1,2.32,2.73C44.32,44.53,44,46.53,42.68,46.94Z" fill="#5ea4da" fill-rule="evenodd"/></g></svg>