<svg xmlns="http://www.w3.org/2000/svg" xmlns:xlink="http://www.w3.org/1999/xlink" width="95.798" height="95.08" viewBox="0 0 95.798 95.08"><defs><linearGradient id="a" x1="0.521" y1="-0.137" x2="0.47" y2="1.244" gradientUnits="objectBoundingBox"><stop offset="0" stop-color="#d8d8d8"/><stop offset="0.3" stop-color="#ebebeb"/><stop offset="0.94" stop-color="#fff"/><stop offset="1" stop-color="#fff"/></linearGradient></defs><g transform="translate(-0.002 0)" style="isolation:isolate"><path d="M95.8,54.33c-.23-.85-2-1.09-4.45-.76a28.189,28.189,0,0,0-3.62.77c-.46.13-.93.27-1.4.43a31.17,31.17,0,0,0-4.25,1.75l-.22-.2a37.079,37.079,0,0,0,3.39-1.63c.89-.48,1.72-1,2.48-1.47a23.08,23.08,0,0,0,3.62-2.81c1.42-1.39,2-2.59,1.53-3.28a2,2,0,0,0-1.53-.54,11.81,11.81,0,0,0-3.62.61,33.52,33.52,0,0,0-6.15,2.61c-.55.3-1.09.61-1.6.92a27.309,27.309,0,0,0-3.78,2.71l-.38-.1a26.75,26.75,0,0,0,4-2.93l.15-.13c3.5-3.12,5.23-6.26,3.88-7-.72-.42-2.16-.1-3.88.75a24.72,24.72,0,0,0-5.12,3.53,15.89,15.89,0,0,0-4.25,5.27,8,8,0,0,0-3.19.85L41.91,67.4c-3.47-1.85-7.18-3.75-7.43-3.93C26.23,57.52,12.73,55.12,12,61.22V62.4a.28.28,0,0,0,0,.09c.46,3.65,5.29,8.09,10.44,11.73-3.18,1.7-5.19,4.23-5.19,7a6.9,6.9,0,0,0,2.17,4.83L15,88.44a.47.47,0,0,0-.25.44.46.46,0,0,0,.24.43l1.7,1a2,2,0,0,0,2,0l3.55-2.09a20.87,20.87,0,0,0,10,2.35c5.09,0,9.59-1.58,12.31-4,5.92,3.49,19.07,10.24,24,8.1,7-3.06-2.1-13.13-12-17.9L80,63l1.09-.64a6.17,6.17,0,0,0,1.77-1.46,28.88,28.88,0,0,0,4.84-1.18h0a31,31,0,0,0,3.62-1.45c2.54-1.22,4.27-2.56,4.46-3.54v-.37ZM87.73,48c1.67-.4,2.9-.37,3.32.17.6.82-.79,2.57-3.32,4.35l-.18.12a10.16,10.16,0,0,0-.91-1.3,11.56,11.56,0,0,0-2.36-2.15A22.24,22.24,0,0,1,87.73,48ZM80,44.72c1.16-.51,2.11-.67,2.62-.37.85.49.18,2.14-1.49,4A11.42,11.42,0,0,0,80,47.67l-.14-.07A13.91,13.91,0,0,0,77,46.47a16.34,16.34,0,0,1,3-1.75Zm11.37,12.9c-.39.21-.81.42-1.27.62a8.47,8.47,0,0,0-.31-1.3,8.72,8.72,0,0,0-1.16-2.3,17.85,17.85,0,0,1,2.74-.45c1.54-.11,2.59.12,2.75.71s-.94,1.72-2.77,2.72Z" fill="#57295e" fill-rule="evenodd" opacity="0.5" style="mix-blend-mode:multiply;isolation:isolate"/><path d="M62.84,2c1.31.29,2.09,2.24,2.18,5V8a22.289,22.289,0,0,1-.51,3.95A16.51,16.51,0,0,1,61.33,19V8.44l.92.15c.66.13,1.3.28,1.93.47.18-2.85-.47-5-1.74-5.32A1.57,1.57,0,0,0,61.33,4V2.31A2,2,0,0,1,62.84,2ZM61.33,19a2.84,2.84,0,0,1-2.55,1.25C57.47,20,56.69,18,56.6,15.33V14.24a21.51,21.51,0,0,1,.51-4c.86-3.86,2.55-6.94,4.22-8V4a8.536,8.536,0,0,0-2.88,4.33,18.68,18.68,0,0,1,2.88.16Z" fill="#979797" fill-rule="evenodd"/><path d="M62.28,1.81c1.31.3,2.09,2.25,2.18,4.95V7.82a22.4,22.4,0,0,1-.51,4,16.41,16.41,0,0,1-3.18,7.07V8.29a4.773,4.773,0,0,1,.92.15,17.52,17.52,0,0,1,1.93.47c.18-2.85-.47-5-1.73-5.33a1.65,1.65,0,0,0-1.12.22V2.15a2.05,2.05,0,0,1,1.51-.34Zm-1.51,17a2.83,2.83,0,0,1-2.55,1.26c-1.31-.29-2.09-2.24-2.18-4.93V14.09a21.29,21.29,0,0,1,.51-3.95c.86-3.86,2.56-6.94,4.22-8V3.8a8.552,8.552,0,0,0-2.88,4.33,18.61,18.61,0,0,1,2.88.16Z" fill="#cacaca" fill-rule="evenodd"/><path d="M75.18,3.56C77.3,4.79,76.54,10,73.49,15.27a26.709,26.709,0,0,1-1.93,2.88V10.43l.61.31a21.77,21.77,0,0,1,2,1.21c1.22-3.11,1.28-5.79,0-6.56a2.59,2.59,0,0,0-2.55.34V4.25C73,3.32,74.27,3,75.18,3.56ZM71.56,18.15c-2.71,3.48-5.73,5.37-7.43,4.38-2.11-1.24-1.36-6.48,1.69-11.72a19.94,19.94,0,0,1,5.74-6.56V5.73A12.53,12.53,0,0,0,68,9a20.92,20.92,0,0,1,3.52,1.39Z" fill="#979797" fill-rule="evenodd"/><path d="M74.61,3.18C76.73,4.42,76,9.67,72.92,14.9A25.321,25.321,0,0,1,71,17.78V10.06l.61.31a21.769,21.769,0,0,1,2,1.21c1.22-3.11,1.28-5.79,0-6.56A2.59,2.59,0,0,0,71,5.36V3.88C72.41,3,73.7,2.65,74.61,3.18ZM71,17.78c-2.71,3.48-5.73,5.36-7.43,4.38-2.11-1.24-1.36-6.48,1.69-11.72A19.94,19.94,0,0,1,71,3.88V5.36a12.53,12.53,0,0,0-3.52,3.31A20.6,20.6,0,0,1,71,10.06Z" fill="#cacaca" fill-rule="evenodd"/><path d="M82.46,12.37c1.48,1.48-.29,5.65-3.95,9.3h0v-4c.46.44.89.89,1.3,1.36,1.68-2.3,2.32-4.5,1.4-5.42-.54-.53-1.52-.54-2.7-.11V12.48C80.23,11.71,81.7,11.61,82.46,12.37Zm-4,9.33c-3.66,3.64-7.81,5.39-9.28,3.91s.29-5.65,4-9.3a18.53,18.53,0,0,1,5.32-3.83v1.06a11.81,11.81,0,0,0-3.11,1.79,19,19,0,0,1,3,2.31l.07.07Z" fill="#979797" fill-rule="evenodd"/><path d="M82.08,11.94c1.47,1.48-.3,5.65-4,9.3h0v-4a18.651,18.651,0,0,1,1.3,1.37c1.68-2.31,2.32-4.51,1.4-5.43-.54-.53-1.52-.54-2.7-.11V12.05C79.84,11.28,81.32,11.18,82.08,11.94Zm-4,9.33c-3.66,3.64-7.8,5.39-9.28,3.91s.3-5.65,4-9.3a18.53,18.53,0,0,1,5.32-3.83v1.06A11.81,11.81,0,0,0,75,14.9a19,19,0,0,1,3,2.31l.07.07Z" fill="#cacaca" fill-rule="evenodd"/><path d="M34.44,73.7a.5.5,0,0,1-.32-.88,20.07,20.07,0,0,1,6.45-3.66.5.5,0,0,1,.34.94,19.21,19.21,0,0,0-6.14,3.48A.52.52,0,0,1,34.44,73.7Z" fill="#1f1f1f"/><path d="M22.24,75.37a.48.48,0,0,1-.47-.33.5.5,0,0,1,.29-.64,19.69,19.69,0,0,1,7.54-1.23.5.5,0,0,1,.48.52.47.47,0,0,1-.52.48,18.63,18.63,0,0,0-7.15,1.17Z" fill="#1f1f1f"/><path d="M33.21,71.42A3.86,3.86,0,0,1,36.68,73h.15v1.32c0,1.25-1.63,2.26-3.63,2.26s-3.63-1-3.63-2.26V73h.16a3.86,3.86,0,0,1,3.48-1.58Z" fill="#979797" fill-rule="evenodd"/><path d="M33.21,75.09c2,0,3.63-1,3.63-2.25s-1.63-2.26-3.63-2.26-3.63,1-3.63,2.26S31.21,75.09,33.21,75.09Z" fill="#dedede" fill-rule="evenodd"/><path d="M33.24,73.35a.93.93,0,0,1-.23,0,.72.72,0,0,1-.45-.9l5.37-16.32a.71.71,0,1,1,1.35.44L33.91,72.86A.71.71,0,0,1,33.24,73.35Z" fill="#1f1f1f"/><path d="M23.79,79.25a.5.5,0,0,1-.32-.88,20.07,20.07,0,0,1,6.45-3.66.5.5,0,1,1,.34.94,19.1,19.1,0,0,0-6.14,3.48.52.52,0,0,1-.33.12Z" fill="#1f1f1f"/><path d="M29.51,81.41a.57.57,0,0,1-.18,0,.5.5,0,0,1-.28-.65,20.69,20.69,0,0,1,2.65-5,.51.51,0,0,1,.7-.11.5.5,0,0,1,.1.7A20.32,20.32,0,0,0,30,81.1a.47.47,0,0,1-.49.31Z" fill="#1f1f1f"/><path d="M49.42,82.51a.49.49,0,0,1-.38-.18.5.5,0,0,1,.06-.7A20.15,20.15,0,0,1,55.55,78a.5.5,0,1,1,.34.93,19.21,19.21,0,0,0-6.14,3.48A.52.52,0,0,1,49.42,82.51Z" fill="#1f1f1f"/><path d="M37.22,84.19a.51.51,0,0,1-.47-.33.49.49,0,0,1,.3-.64A19.44,19.44,0,0,1,44.59,82a.49.49,0,0,1,.47.52.46.46,0,0,1-.52.47,18.63,18.63,0,0,0-7.15,1.17A.35.35,0,0,1,37.22,84.19Z" fill="#1f1f1f"/><path d="M48.19,80.23a3.86,3.86,0,0,1,3.47,1.59h.15v1.36c0,1.24-1.63,2.25-3.63,2.25s-3.63-1-3.63-2.25V81.82h.16A3.86,3.86,0,0,1,48.19,80.23Z" fill="#979797" fill-rule="evenodd"/><path d="M48.19,83.9c2,0,3.63-1,3.63-2.25s-1.63-2.25-3.63-2.25-3.63,1-3.63,2.25S46.19,83.9,48.19,83.9Z" fill="#dedede" fill-rule="evenodd"/><path d="M48.22,82.16a.62.62,0,0,1-.23,0,.71.71,0,0,1-.45-.9L52.91,64.9a.712.712,0,0,1,1.35.45L48.89,81.67A.7.7,0,0,1,48.22,82.16Z" fill="#1f1f1f"/><path d="M.05,24.06c.85,6.67,16.29,16,21.64,18.22,0-.2,1-.54,1.08-.74.68-5.31.12-11.86-.2-16.5C13.36,18.81-.93,16.4.05,24.06Z" fill="#7e7e7e" fill-rule="evenodd"/><path d="M.26,22.65c.85,6.67,16.3,16,21.65,18.22,0-.2,1.05-.54,1.08-.74.68-5.31.11-11.86-.21-16.5C13.58,17.4-.72,15,.26,22.65Z" fill="#cacaca" fill-rule="evenodd"/><path d="M28.86,47.25l6.71,20.06a39.19,39.19,0,0,1-14.32-6c-6.53-3.75-14.81-19.55-9.44-27.08C26,18.1,38.22,21.81,50.78,16.1,69.28,16.88,53.76,26.29,28.86,47.25Z" fill="#7e7e7e" fill-rule="evenodd"/><path d="M49.65,15.63c11-1.42,17.94,1.34,21.18,5.21C50.87,39,29.47,50.33,28.07,43.37c-7.55,7.91-19.2,2.52-16.51-8.75C19.09,21.24,38.5,17.08,49.65,15.63Z" fill-rule="evenodd" fill="url(#a)"/><path d="M49,63.69C27.73,76.8,21.7,52.71,28.07,43.37c15.82-14.15,26.6-11.68,38-18.81,1.94-.88,3-2.4,4.73-3.72C75.67,31.85,62.34,55.44,49,63.69Z" fill="#979797" fill-rule="evenodd"/><path d="M25.65,26.67c4.13,0,7.62,1.69,8.78,4h.38v1.68c0,3.15-4.11,5.7-9.18,5.7s-9.18-2.55-9.18-5.7V30.69h.4C18,28.36,21.52,26.67,25.65,26.67Z" fill="#979797" fill-rule="evenodd"/><path d="M25.65,24.55c5.07,0,9.18,2.55,9.18,5.7S30.72,36,25.65,36s-9.18-2.55-9.18-5.7S20.58,24.55,25.65,24.55Z" fill="#1f1f1f" fill-rule="evenodd"/><path d="M18.92.85C15.53,2.14,11.7,4.63,8.39,11,3.08,21.14,3.53,28.25,12.88,31.44s17.62,3.78,22.47,1c4.39-2.56,5.47-18.54-2.46-28.18C29-.49,22.94-.67,18.92.85Z" fill="#cacaca" fill-rule="evenodd"/><path d="M49.1,57.1c-14.09,9.81-23.75-2.61-21-13.72h0C42.29,27.21,53.66,33.3,70.83,20.84,76.87,27.67,57.73,51.09,49.1,57.1Z" fill="#afafaf" fill-rule="evenodd"/><path d="M63.11,28.75a1.59,1.59,0,0,1-.41,1.16c.34-.09.5.18.5.8v.12A2.47,2.47,0,0,1,63,32a2.06,2.06,0,0,1-.78.77h0V32.2a.6.6,0,0,0,.23-.27,1.41,1.41,0,0,0,.09-.57V31a1.08,1.08,0,0,0-.07-.46c-.05-.07-.13-.07-.25,0V30a.59.59,0,0,0,.19-.23,1.94,1.94,0,0,0,0-.51V29c0-.18,0-.28-.07-.32a.18.18,0,0,0-.17,0v-.56c.34-.2.58-.26.72-.19s.22.31.22.68Zm-.94,4-1,.6V28.71l1-.59h0v.56h-.08l-.23.14v1.32l.26-.15h.05v.53h0l-.29.18v1.68l.25-.14h.06Z" fill="#5276af"/><path d="M63.78,31.81V27.16l.71-.42v4.65Z" fill="#5276af"/><path d="M66.22,25.72l.16-.1a.87.87,0,0,1,.55-.17.31.31,0,0,1,.23.27,2.7,2.7,0,0,1,.06.65,2.25,2.25,0,0,1-.09.7,1.15,1.15,0,0,1-.33.5q.24-.11.33.12a3.65,3.65,0,0,1,.1,1.13v.94l-.7.42V28.53c0-.21,0-.33-.07-.37s-.12,0-.23,0v-.57a.57.57,0,0,0,.18-.16.66.66,0,0,0,.1-.27c0-.11,0-.26,0-.46h0a1,1,0,0,0-.06-.46h-.24Zm-.07,2.51-.23.12v2.2l-.71.42V26.31l1-.59v.54h-.06l-.24.14v1.4l.29-.17h0v.57Z" fill="#5276af"/><path d="M68.89,28.24A.63.63,0,0,0,69.1,28a1.16,1.16,0,0,0,.09-.51v-2.3a.77.77,0,0,0-.09-.46.228.228,0,0,0-.21,0v-.55h0c.34-.21.59-.25.75-.14s.23.36.23.76v2.09a2.68,2.68,0,0,1-.2,1.11,1.92,1.92,0,0,1-.77.78h0Zm-.3.19.23-.14.07-.05v.56l-1,.59V24.74l1-.59v.55H68.8l-.21.13Z" fill="#5276af"/><path d="M51.55,34.37l.16-.1a.83.83,0,0,1,.54-.17.34.34,0,0,1,.24.27,2.7,2.7,0,0,1,.06.65,2.25,2.25,0,0,1-.09.7,1.09,1.09,0,0,1-.34.5.22.22,0,0,1,.34.13,4,4,0,0,1,.09,1.12,6.25,6.25,0,0,0,0,.94l-.71.42V37.18c0-.21,0-.33-.08-.37s-.11,0-.22,0v-.57a.57.57,0,0,0,.18-.16.85.85,0,0,0,.09-.27,2.61,2.61,0,0,0,0-.46h0a1,1,0,0,0-.07-.46h-.23Zm-.08,2.51-.22.12v2.2l-.71.42V35l1-.59v.55h-.06l-.24.14v1.36l.28-.17h0v.57Z" fill="#fff"/><path d="M54.18,36.91h0a.53.53,0,0,0,.25-.32,2.2,2.2,0,0,0,.06-.6V33.82a1.08,1.08,0,0,0-.06-.44c0-.08-.12-.08-.24,0h0v-.62h0c.36-.21.62-.25.78-.13a1,1,0,0,1,.24.82v2.12A2.59,2.59,0,0,1,55,36.73a2,2,0,0,1-.78.79h0Zm-.32-.55a1.53,1.53,0,0,0,.06.54c0,.08.13.09.26,0v.61c-.36.21-.62.25-.78.13a1.109,1.109,0,0,1-.25-.87V34.65a2,2,0,0,1,1-1.89v.62a.49.49,0,0,0-.24.29,1.49,1.49,0,0,0-.08.52Z" fill="#fff"/><path d="M57.84,31.86A1.59,1.59,0,0,1,57.43,33c.33-.09.5.18.5.8v.12a2.54,2.54,0,0,1-.25,1.15,2,2,0,0,1-.78.77h0v-.56a.7.7,0,0,0,.23-.28,1.41,1.41,0,0,0,.08-.57v-.37a.91.91,0,0,0-.07-.46q-.06-.1-.24,0v-.54a.42.42,0,0,0,.18-.22,1.52,1.52,0,0,0,.06-.51v-.28c0-.18,0-.29-.07-.32a.18.18,0,0,0-.17,0v-.56c.34-.2.58-.26.72-.19s.22.3.22.68Zm-.94,4-1,.6V31.82l1-.59h0v.56h-.08l-.24.14v1.32l.26-.15h.06v.54h0l-.3.17V35.5l.25-.15h.07Z" fill="#fff"/><path d="M59.45,33.8h0a.56.56,0,0,0,.26-.31,2.34,2.34,0,0,0,.06-.61V30.72a1.14,1.14,0,0,0-.06-.45c-.05-.08-.13-.08-.25,0h0v-.62h0c.36-.21.61-.25.77-.13a1,1,0,0,1,.24.82v2.13a2.45,2.45,0,0,1-.25,1.16,1.94,1.94,0,0,1-.77.79h0Zm-.31-.55a1.49,1.49,0,0,0,.06.54c0,.08.12.09.25,0v.61c-.35.21-.61.25-.78.13a1.12,1.12,0,0,1-.25-.87V31.54a2.05,2.05,0,0,1,1-1.89v.62a.62.62,0,0,0-.24.29,1.52,1.52,0,0,0-.07.52Z" fill="#fff"/><path d="M37.91,14.75c.85,7.1-7.44,6.81-8.07,8.82-1.95,6.24-2.3,6-7.45,5.47-8.71-.85-14.95-4.91-17-10.28a32,32,0,0,1,3-7.79C11.7,4.63,15.53,2.14,18.92.85c4-1.52,10.08-1.34,14,3.38a26,26,0,0,1,4.99,10.52Z" fill="#e3e3e3" fill-rule="evenodd"/><path d="M48,52.78A47.24,47.24,0,0,0,53.23,63c2.81,4.25-1.38,7.5-5.53,2.85a48.7,48.7,0,0,1-7.23-8.61C37.74,52.92,45.88,46.9,48,52.78Z" fill="#d5d5d5" fill-rule="evenodd"/><path d="M49.28,53.33a47.85,47.85,0,0,0,5.24,10.22c2.81,4.26-1.38,7.51-5.53,2.86a49,49,0,0,1-7.22-8.61C39,53.47,47.18,47.44,49.28,53.33Z" fill="#afafaf" fill-rule="evenodd"/><path d="M47.07,52.55c.84.78.61,2.64-.52,4.14S43.83,58.79,43,58s-.61-2.63.51-4.14S46.23,51.78,47.07,52.55Z" fill="#5ea4da" fill-rule="evenodd"/><path d="M47.65,52.9c.84.78.61,2.64-.52,4.14s-2.73,2.1-3.57,1.32-.61-2.63.52-4.14S46.8,52.13,47.65,52.9Z" fill="#73cafc" fill-rule="evenodd"/><path d="M54.48,64.28c.55.5.4,1.7-.33,2.67s-1.76,1.36-2.31.85-.39-1.7.34-2.67S53.94,63.77,54.48,64.28Z" fill="#5ea4da" fill-rule="evenodd"/><path d="M54.85,64.5c.55.51.4,1.7-.33,2.68s-1.76,1.35-2.31.85-.39-1.7.34-2.68S54.31,64,54.85,64.5Z" fill="#73cafc" fill-rule="evenodd"/><path d="M34,46.5l9.24-5.27c3.89,2,19,21.52-9.3,6.15A1.94,1.94,0,0,1,34,46.5Z" fill="#1f1f1f" fill-rule="evenodd"/><path d="M61.44,58.5c-6.16,2.69-22.08-5.79-26.73-9.24.15-.13-.08-1.18.08-1.31,4.21-3.31,10.12-6.18,14.27-8.29C59.13,44.38,68.53,55.41,61.44,58.5Z" fill="#7e7e7e" fill-rule="evenodd"/><path d="M61.4,57.71c-5.93,2.59-24-7.86-26.61-9.76,4.21-3.31,10.12-6.18,14.27-8.29C59.13,44.38,68.49,54.62,61.4,57.71Z" fill="#73cafc" fill-rule="evenodd"/><path d="M45.2,41.63c8.42,4.79,15.3,12.82,10.73,16.11C48.19,56.07,36.84,49.43,34.79,48A67.75,67.75,0,0,1,45.2,41.63Z" fill="#e3e3e3" fill-rule="evenodd"/><path d="M38.77,88.06a.49.49,0,0,1-.38-.18.5.5,0,0,1,.06-.7,20,20,0,0,1,6.45-3.65.5.5,0,0,1,.64.3.51.51,0,0,1-.3.64,19.19,19.19,0,0,0-6.14,3.47A.52.52,0,0,1,38.77,88.06Z" fill="#1f1f1f"/><path d="M44.49,90.23a.39.39,0,0,1-.18,0,.5.5,0,0,1-.28-.65,20.42,20.42,0,0,1,2.65-5,.5.5,0,0,1,.7-.11.48.48,0,0,1,.1.69A20.21,20.21,0,0,0,45,89.92a.51.51,0,0,1-.51.31Z" fill="#1f1f1f"/><path d="M42.23,22c.92-2.18,4.68-3.61,8.4-3.18s6,2.55,5.06,4.73S51,27.17,47.28,26.74,41.3,24.19,42.23,22Z" fill="#979797" fill-rule="evenodd"/><path d="M42.81,22.08c.84-2,4.28-3.3,7.68-2.91S56,21.5,55.11,23.49s-4.28,3.3-7.68,2.91S42,24.07,42.81,22.08Z" fill="#afafaf" fill-rule="evenodd"/><path d="M42.89,21.63c.85-2,4.29-3.29,7.68-2.9s5.47,2.32,4.62,4.32-4.28,3.29-7.68,2.9S42.05,23.63,42.89,21.63Z" fill="#e3e3e3" fill-rule="evenodd"/><path d="M47.17,23.8c.73.06,1.42-.24,1.54-.68s-.35-.85-1.08-.91-1.41.23-1.54.67S46.45,23.73,47.17,23.8Z" fill="#979797" fill-rule="evenodd"/><path d="M47.22,23.67c.51,0,1-.17,1.09-.48s-.26-.61-.77-.65-1,.17-1.09.48S46.7,23.62,47.22,23.67Z" fill="#585857" fill-rule="evenodd"/><path d="M48.3,23.21a.86.86,0,0,0-.77-.44,1.08,1.08,0,0,0-1.08.45.85.85,0,0,0,.77.45,1.06,1.06,0,0,0,1.08-.46Z" fill="#3e3e3d" fill-rule="evenodd"/><path d="M52.69,22l-2.55-1.75a1,1,0,0,0-1,0l-.87.43a.57.57,0,0,0-.31.39.36.36,0,0,0,.14.4l2.54,1.74a1,1,0,0,0,1,0l.89-.43a.59.59,0,0,0,.32-.39.38.38,0,0,0-.16-.39Z" fill="#dadada" fill-rule="evenodd"/><path d="M52,22.14l-1.86-1.27a.69.69,0,0,0-.71,0l-.64.32a.39.39,0,0,0-.22.28.27.27,0,0,0,.1.29L50.54,23a.7.7,0,0,0,.7,0l.65-.32a.4.4,0,0,0,.23-.28.26.26,0,0,0-.12-.26Z" fill="#979797" fill-rule="evenodd"/><path d="M51.78,22.44l-2.05-1.4-.9.43,2.05,1.4.89-.41Z" fill="#3e3e3d" fill-rule="evenodd"/><path d="M5.25,29.53A15.84,15.84,0,0,0,14.4,30c1.37-.79,3-3.05,2.45-4.81C12.69,26.63,8.94,28.12,5.25,29.53Z" fill="#363636" fill-rule="evenodd"/><path d="M11.73,14.75C6.38,17,2.48,22.76,1.5,27.22c-.57,2.6,1,2.79,2.09,2.89,4-1.36,9.75-3.69,13.76-5.05C17,19.32,14.87,13.44,11.73,14.75Z" fill="#979797" fill-rule="evenodd"/><path d="M3.61,30.1c4-1.36,9.73-3.68,13.74-5-.2-3.73-1.19-7.52-2.71-9.35a2.15,2.15,0,0,0-.8.18c-5.35,2.23-9.25,8-10.23,12.47a3.14,3.14,0,0,0,0,1.7Z" fill="#4d4d4d" fill-rule="evenodd"/><path d="M9.83,26.06c1.2-.41,4.93-1.84,6.13-2.25a5.35,5.35,0,0,0-.81-2.8C13.79,21.06,10.78,23.67,9.83,26.06Z" fill="#363636" fill-rule="evenodd"/><path d="M9.83,26.06c1.2-.41,4.93-1.84,6.13-2.25h0l-3-1.7A10.59,10.59,0,0,0,9.83,26.06Z" fill="#979797" fill-rule="evenodd"/><path d="M17.93,15.25a31.33,31.33,0,0,0,14.88.27c-.14,1-.27,2-.41,3a24.2,24.2,0,0,0-13,7.55,20,20,0,0,0-1.47-10.82Z" fill="#4d4d4d" fill-rule="evenodd"/><path d="M21,17.59c3.24.83,7.83.3,11.66-.74l-.23,1.68a23.73,23.73,0,0,0-11.66,6.2C21.41,22.2,21.78,19.47,21,17.59Z" fill="#88f1f1" fill-rule="evenodd"/><path d="M8.45,10.85a3.51,3.51,0,0,0,2.1,2c-1.71.73-3.33,2.58-4.91,4.78A35.26,35.26,0,0,1,8.39,11Z" fill="#4d4d4d" fill-rule="evenodd"/></g></svg>