<svg xmlns="http://www.w3.org/2000/svg" xmlns:xlink="http://www.w3.org/1999/xlink" width="64" height="200" viewBox="0 0 64 200"><defs><clipPath id="a"><rect width="64" height="117" transform="translate(-19 15)" fill="#fff" stroke="#707070" stroke-width="1"/></clipPath><linearGradient id="b" x1="0.63" y1="-1.749" x2="0.406" y2="1.961" gradientUnits="objectBoundingBox"><stop offset="0" stop-color="#d8d8d8"/><stop offset="0.3" stop-color="#ebebeb"/><stop offset="0.94" stop-color="#fff"/><stop offset="1" stop-color="#fff"/></linearGradient></defs><g transform="translate(19 68)"><g clip-path="url(#a)"><g transform="translate(-16)"><path d="M113.36,66.52l8.8-4.89a.34.34,0,0,0,.17-.29.32.32,0,0,0-.17-.29l-1.28-.68a.91.91,0,0,0-.89,0l-8.67,4.83a10.59,10.59,0,0,0-5.65.88l-77,35.38-10.79,7.15-1.59-.87L6.38,113.5a.84.84,0,0,0-.44.75.83.83,0,0,0,.44.75l1,.56-4.1,2.74a3,3,0,0,0,0,5l4.91,2.82c3.66,2.1,8.74,3.44,12.42,1.37l4.75-2.16,2.32,1.27a3.31,3.31,0,0,0,3.41,0l8-4.85a.86.86,0,0,0-.02-1.49l-1.13-.63L43.78,117l.79-2.78,14.14-9.51c9.15,3.11,18.6,4.27,27.1-1.35a81.709,81.709,0,0,1-14.24-7.3l39.27-26.41C112.81,68.32,113.49,67.27,113.36,66.52Z" fill="#099184" fill-rule="evenodd" opacity="0.5"/><path d="M119.33,0l-4,2a6.62,6.62,0,0,0-1.24.84V11a75.137,75.137,0,0,1,3.06-7c0,8.34.11,19.39-3.06,23.66v1.79c2.76,2.29,3.19,10.92,3.14,17.23a54.722,54.722,0,0,1-3.14-6.18v9.68A3.6,3.6,0,0,0,116.9,50a10.39,10.39,0,0,0,2.26-1.44c.06-8.33-.44-19.32-5-19.79,5-3.1,6.21-17.3,6.22-27.94C120.38.31,119.81.14,119.33,0Zm-5.22,2.85c-4.82,4-8.89,16.61-9.13,24v1.34a12.4,12.4,0,0,0,.13,1.45,44.17,44.17,0,0,0,2.92,12c2.35,5.42,4.23,7.92,6.08,8.6V40.53A37.89,37.89,0,0,1,111,28.23c-.33-5.23.72-10.93,3.09-17.2V2.85Zm0,24.84v1.79a2.42,2.42,0,0,0-1.29-.56A4.83,4.83,0,0,0,114.11,27.69Z" fill="#73cafc" fill-rule="evenodd"/><path d="M120.38.83l-4,2a6.62,6.62,0,0,0-1.24.84v8.18c.85-2.26,1.88-4.59,3.07-7,0,7.71-.4,17.25-3.07,21.93v1.59c4.6-4,5.22-17.2,5.22-27.55ZM115.16,51a3.62,3.62,0,0,0,2.8-.21,10.36,10.36,0,0,0,2.25-1.44c.06-7.91-1-18.85-5-20.35v1.33c2.37,3.2,3.18,11.39,3.14,17.17a54.72,54.72,0,0,1-3.14-6.18Zm0-47.36c-4.82,4-8.89,16.61-9.13,24V29a12.4,12.4,0,0,0,.13,1.45,43.82,43.82,0,0,0,2.93,12c2.34,5.42,4.22,7.92,6.07,8.6V41.36a37.63,37.63,0,0,1-3.08-12.3c-.34-5.23.71-10.93,3.08-17.2V3.68Zm0,25.36v1.33a2.92,2.92,0,0,0-2-1.34,6.13,6.13,0,0,0,2-2.24v1.59a4.49,4.49,0,0,1-.67.5,2.52,2.52,0,0,1,.67.16Z" fill="#5595c5" fill-rule="evenodd"/><path d="M106.16,30.47a43.82,43.82,0,0,0,2.93,12c4.38,10.11,7.11,10.07,11.12,7,.06-8.33-1.16-20-5.72-20.51,0,0-.46,0-1.21.07l-.13.08c3.93.41,5.2,11.32,5.15,18.51-2.33-4-5.73-10.67-6.22-18.48a20.51,20.51,0,0,0-5.92,1.33Z" fill="#5ea4da" fill-rule="evenodd"/><path d="M103.87,36.24c1.68,0,3-2.36,3-5.25s-1.36-5.24-3-5.24-3,2.35-3,5.24S102.2,36.24,103.87,36.24Z" fill="#1f1f1f" fill-rule="evenodd"/><path d="M13.16,114.57c22-9.38,38.94-19.08,27.5-27.19.45-8.34.62-11.62,1.07-20L86,40.85c.36-1.85,8.69-6.67,9-9.09l8.55-6a8.09,8.09,0,0,0-1.93-.62C74.7,24.61,16.59,37.35,0,97.1,9.15,109.27.52,107.36,13.16,114.57Z" fill-rule="evenodd" fill="url(#b)"/><path d="M15.65,114.51c11.94-4,35-11.42,51.34-24.86,25.66-21.17,16.75-39.87,36.63-52.31h0c2.14-5.27,1.86-9-.08-11.59-8.42.35-30.67,4-46.33,14-17.37,11.18-35.83,31.87-46.46,63.5.65,6,.65,6,1,9.28C12,114.65,13.92,115.1,15.65,114.51Z" fill="#afafaf" fill-rule="evenodd"/><path d="M105.1,30.4C73.29,41,71.16,71.34,43.11,86.34l-7.56,21C46,103.1,57.62,97.38,67,89.65c25.66-21.17,16.75-39.87,36.63-52.31h0a16.82,16.82,0,0,0,1.47-6.94Z" fill="#979797" fill-rule="evenodd"/><path d="M30.14,55.49c.67-1.71,9.83-11.64,15-15.92.62.83,1.27,1.66,1.94,2.51C42,45.41,37,50.32,31.41,56.33h0C31.05,56.77,30.12,56.06,30.14,55.49Z" fill="#1f1f1f" fill-rule="evenodd"/><path d="M40.36,20.27,41.44,19a.66.66,0,0,1,.82.45c2.14,6.22,3,11.9,7.18,17.14a38.81,38.81,0,0,0-9.08,7.52v-4a54.392,54.392,0,0,1,5.07-3.63A35.26,35.26,0,0,1,43,32.16q-1.36,1.65-2.62,3.42ZM27.84,54.83a28.14,28.14,0,0,1-.75-5.4V47.17c.43-10.11,6.44-18.76,13.27-26.9V35.58a44.26,44.26,0,0,0-5.06,9.13,56.758,56.758,0,0,1,5.06-4.58v4c-3.3,3.48-6.7,7.61-10.7,11.91C29.13,56.65,27.81,55.64,27.84,54.83Z" fill="#73cafc" fill-rule="evenodd"/><path d="M40.47,21.61c.58-.72,1.18-1.44,1.79-2.16,2.21,6.38,4.73,13,9,18.34a63.44,63.44,0,0,0-10.79,7.64V41.82a54.52,54.52,0,0,1,6.25-4.61,56.6,56.6,0,0,1-3.17-5.72c-1.07,1.25-2.11,2.58-3.08,3.94ZM29.66,56a31,31,0,0,1-.79-5.36V47.06c.56-9.42,5.44-17.83,11.6-25.45V35.43a39,39,0,0,0-6.26,12.66,47.55,47.55,0,0,1,6.26-6.27v3.61A127.513,127.513,0,0,0,29.66,56Z" fill="#5595c5" fill-rule="evenodd"/><path d="M105.1,30.4C73.29,41,82.92,64.06,43.11,86.34l-7.56,21C46,103.1,57.62,97.38,67,89.65c25.66-21.17,16.75-39.87,36.63-52.31h0a16.82,16.82,0,0,0,1.47-6.94Z" fill="#afafaf" fill-rule="evenodd"/><path d="M53.3,79.42a62.69,62.69,0,0,0,7.47-7.34c3.79,2,23.28,15.17-7.53,8.19C53.21,80.11,53.19,79.5,53.3,79.42Z" fill="#1f1f1f" fill-rule="evenodd"/><path d="M83.07,80.49c-8.61,5.7-19.75,4.64-29.14,1.16.16-.13-.07-1.15.09-1.28,3.8-3.13,7.88-6.22,10.46-10.47,4.42,3.84,10.77,6.54,18.68,9.84C83.32,79.81,83.22,80.37,83.07,80.49Z" fill="#5595c5" fill-rule="evenodd"/><path d="M83.16,79.74C74,85.78,63.79,84,54,80.37c3.95-3.23,7.86-6.79,10.55-11.22C69.07,73.07,75,76.37,83.16,79.74Z" fill="#73cafc" fill-rule="evenodd"/><path d="M2.53,108.47l10.63,6.1a86.609,86.609,0,0,0,6.72-6.08L0,97.1l1.25,9.47a2.52,2.52,0,0,0,1.28,1.9Z" fill="#7e7e7e" fill-rule="evenodd"/><path d="M30.5,65.07c11.76,9.74,17.35,24.52,13.44,38.62-9.7,4.28-22.1,8.72-28.29,10.82-1.73.59-3.67.14-3.9-2-.35-3.29-.35-3.25-1-9.28A135.12,135.12,0,0,1,30.5,65.07Z" fill="#7e7e7e" fill-rule="evenodd"/><path d="M30.5,65.07c11.76,9.74,13.58,26.44,9.87,41.14-6.91,4.07-17.93,7.07-24.72,8.3-1.79.33-3.67.14-3.9-2-.35-3.29-.35-3.25-1-9.28A135.12,135.12,0,0,1,30.5,65.07Z" fill="#afafaf" fill-rule="evenodd"/><path d="M76.89,34.83c2.91,1.5,3.55,7,1.44,12.2s-6.19,8.26-9.09,6.76-3.55-7-1.43-12.2S74,33.33,76.89,34.83Z" fill="#979797" fill-rule="evenodd"/><path d="M76.56,35.65C79.22,37,79.8,42,77.87,46.79s-5.65,7.55-8.3,6.18-3.24-6.36-1.31-11.14S73.91,34.28,76.56,35.65Z" fill="#e3e3e3" fill-rule="evenodd"/><path d="M77.2,35.81c2.65,1.37,3.24,6.36,1.31,11.14s-5.65,7.55-8.31,6.18S67,46.77,68.9,42,74.54,34.44,77.2,35.81Z" fill="#afafaf" fill-rule="evenodd"/><path d="M71.74,41.91c-.39,1-.21,2,.4,2.24s1.41-.43,1.8-1.45.2-2-.41-2.25S72.12,40.89,71.74,41.91Z" fill="#979797" fill-rule="evenodd"/><path d="M71.92,42c-.28.73-.15,1.44.28,1.6s1-.31,1.28-1,.15-1.44-.29-1.59S72.19,41.26,71.92,42Z" fill="#585857" fill-rule="evenodd"/><path d="M72.16,43.56a1.6,1.6,0,0,0,1-1.05c.27-.7.15-1.39-.24-1.57a1.58,1.58,0,0,0-1,1C71.65,42.69,71.77,43.38,72.16,43.56Z" fill="#3e3e3d" fill-rule="evenodd"/><path d="M72.7,49.67l3.64-3.46a1.42,1.42,0,0,0,.41-1.39l-.3-1.28a.62.62,0,0,0-.45-.47.66.66,0,0,0-.66.17l-3.61,3.45a1.43,1.43,0,0,0-.43,1.36l.29,1.3a.64.64,0,0,0,.46.49.66.66,0,0,0,.65-.17Z" fill="#979797" fill-rule="evenodd"/><path d="M72.82,48.71l2.65-2.53a1,1,0,0,0,.3-1l-.22-.93a.45.45,0,0,0-.33-.35.51.51,0,0,0-.48.12l-2.63,2.51a1,1,0,0,0-.31,1l.21.95a.47.47,0,0,0,.33.35A.5.5,0,0,0,72.82,48.71Z" fill="#afafaf" fill-rule="evenodd"/><path d="M72.47,48.34l2.91-2.77-.29-1.32-2.92,2.78.27,1.3Z" fill="#3e3e3d" fill-rule="evenodd"/><path d="M55.4,72.64v-.9h0a1,1,0,0,0,.3-.54,4.07,4.07,0,0,0,.08-.9V67.12a1.65,1.65,0,0,0-.08-.63c0-.1-.14-.08-.29.06h0v-.9h0c.43-.41.74-.56.93-.43s.28.5.28,1.12v3.12a5.19,5.19,0,0,1-.29,1.78,3.86,3.86,0,0,1-.93,1.4Zm0-7v.9a1.08,1.08,0,0,0-.29.51,2.78,2.78,0,0,0-.09.78V71a2.34,2.34,0,0,0,.08.77c0,.1.15.09.3-.06v.9c-.42.41-.73.54-.93.4s-.3-.53-.3-1.2V68.72a4.11,4.11,0,0,1,1.23-3.06Zm-3,9.79v-.81a1.27,1.27,0,0,0,.27-.46,2.81,2.81,0,0,0,.1-.86v-.55a1.51,1.51,0,0,0-.08-.66c0-.09-.15-.07-.29.06v-.79a.83.83,0,0,0,.22-.37,3.23,3.23,0,0,0,.07-.76v-.41q0-.39-.09-.45a.4.4,0,0,0-.2.06v-.82c.4-.37.69-.51.86-.44s.26.39.26.94v.21a3,3,0,0,1-.49,1.8c.4-.2.6.15.6,1.06v.17a5,5,0,0,1-.29,1.76,3.54,3.54,0,0,1-.94,1.31Zm0-6.82v.82l-.1.08-.28.26v1.94l.31-.28a.46.46,0,0,0,.07-.07v.79h0l-.36.32V75l.3-.28.08-.07v.81l-1.23,1.1V69.73l1.21-1.08h0Zm-3.26,9.75v-.9h0a.92.92,0,0,0,.3-.5,4,4,0,0,0,.07-.89V72.9a1.81,1.81,0,0,0-.07-.64c0-.11-.15-.1-.29,0h0v-.9h0c.43-.35.74-.46.93-.3s.28.54.28,1.15v3.13A4.63,4.63,0,0,1,50,77.09a3.1,3.1,0,0,1-.93,1.29ZM46,73.94l.19-.14c.29-.22.51-.31.65-.28a.44.44,0,0,1,.28.39,4.7,4.7,0,0,1,.07,1,3.73,3.73,0,0,1-.11,1,1.86,1.86,0,0,1-.39.75c.19-.11.32-.05.4.17a7.33,7.33,0,0,1,.11,1.65,13.768,13.768,0,0,0,0,1.39l-.85.65V78.08c0-.3,0-.48-.08-.54s-.14,0-.27,0v-.83a1,1,0,0,0,.22-.25,1.23,1.23,0,0,0,.1-.39,6,6,0,0,0,0-.69h0a1.69,1.69,0,0,0-.07-.67c0-.07-.14-.06-.28,0V73.9Zm3.14-2.55v.9a1,1,0,0,0-.29.46,2.78,2.78,0,0,0-.09.78v3.19a2.45,2.45,0,0,0,.08.78q.075.165.3,0v.9c-.42.36-.73.44-.93.28s-.3-.59-.3-1.26V74.27a3.55,3.55,0,0,1,1.18-2.88Zm-3.23,6.25-.27.19v3.24l-.85.61V74.81L46,73.94v.81a.18.18,0,0,0-.07,0l-.29.21v2l.34-.25h0v.83Z" fill="#fff"/><path d="M57.39,70.58V63.77c.64-.65,1.28-1.31,1.91-2v.9l-1.06,1.1v1.82l1-1v.91c-.33.34-.66.69-1,1v3.2c-.28.29-.56.58-.85.86Zm2.55-2.64V61.12c.29-.3.57-.61.85-.92V67c-.28.31-.56.61-.85.91Zm1.61-3.66v-.61c.27-.29.53-.59.8-.89v.68a2,2,0,0,0,.08.72c0,.1.15.06.3-.1a1.47,1.47,0,0,0,.29-.53,3.22,3.22,0,0,0,.07-.7,1,1,0,0,0-.13-.61.51.51,0,0,0-.4-.21L62.15,62a.69.69,0,0,1-.45-.26,1.38,1.38,0,0,1-.16-.74,4.33,4.33,0,0,1,.27-1.56A4.76,4.76,0,0,1,62.72,58c.43-.49.73-.67.88-.53a1.75,1.75,0,0,1,.23,1.13V59c-.26.3-.52.61-.78.9v-.49a1.88,1.88,0,0,0-.07-.63q-.07-.14-.27.09a1.27,1.27,0,0,0-.28.49,1.76,1.76,0,0,0-.09.58.64.64,0,0,0,.09.42.53.53,0,0,0,.32.14l.45.09a.79.79,0,0,1,.53.32,1.59,1.59,0,0,1,.17.82,5.47,5.47,0,0,1-.26,1.73A4.52,4.52,0,0,1,62.72,65c-.44.5-.74.67-.91.51a1.784,1.784,0,0,1-.26-1.2Zm3-1.47V56l.85-1v2.7l.75-.93V54c.29-.35.57-.71.85-1.07V59.8l-.85,1.07v-3.2l-.75.93v3.19Z" fill="#5276af"/><path d="M24.47,79.93c-5,8.46-8.27,15.61-9.77,23.57A29.68,29.68,0,0,0,16,111C16.76,102.11,21.31,89.38,24.47,79.93Z" fill="#979797" fill-rule="evenodd"/><path d="M16.61,111c9.33-3,16.53-6.24,22.92-11.22A19.22,19.22,0,0,0,40.65,92C36.7,101.91,25.86,107,16.61,111Z" fill="#cacaca" fill-rule="evenodd"/><path d="M23.97,78.15l8.84-5.09V89.61L23.97,94.7Z" fill="#4d4d4d" fill-rule="evenodd"/><path d="M35.27,88.42a4.909,4.909,0,0,1-4.44-1.32V75.15l1.37-.75a11.06,11.06,0,0,1,4.51,5.32C38.47,83.73,37.81,87.63,35.27,88.42Z" fill="#88f1f1" fill-rule="evenodd"/><path d="M33.91,89.17a4.08,4.08,0,0,1-3.08-.42V75.15a11,11,0,0,1,4.51,5.32C37.1,84.48,36.45,88.38,33.91,89.17Z" fill="#5ea4da" fill-rule="evenodd"/><path d="M33.27,89.55a4.909,4.909,0,0,1-4.44-1.32v-12l1.37-.75a11,11,0,0,1,4.5,5.32C36.46,84.86,35.81,88.76,33.27,89.55Z" fill="#88f1f1" fill-rule="evenodd"/><path d="M31.9,90.3a4.09,4.09,0,0,1-3.08-.42V76.28a11.11,11.11,0,0,1,4.51,5.32C35.1,85.61,34.44,89.51,31.9,90.3Z" fill="#5ea4da" fill-rule="evenodd"/><path d="M31.26,90.68a4.909,4.909,0,0,1-4.44-1.32v-12l1.37-.75A11.06,11.06,0,0,1,32.73,82C34.46,86,33.8,89.89,31.26,90.68Z" fill="#88f1f1" fill-rule="evenodd"/><path d="M29.9,91.43A4.08,4.08,0,0,1,26.82,91V77.4a11.06,11.06,0,0,1,4.51,5.32C33.09,86.74,32.43,90.64,29.9,91.43Z" fill="#5ea4da" fill-rule="evenodd"/><path d="M29.26,91.81a4.9,4.9,0,0,1-4.44-1.32V78.54l1.38-.75a11,11,0,0,1,4.5,5.32C32.45,87.12,31.79,91,29.26,91.81Z" fill="#88f1f1" fill-rule="evenodd"/><path d="M27.89,92.56a4.09,4.09,0,0,1-3.08-.42V78.54a11.07,11.07,0,0,1,4.52,5.32C31.09,87.87,30.43,91.77,27.89,92.56Z" fill="#5ea4da" fill-rule="evenodd"/></g></g><g transform="translate(-19 -68)" fill="#fff" stroke="#707070" stroke-width="1" opacity="0"><rect width="64" height="83" stroke="none"/><rect x="0.5" y="0.5" width="63" height="82" fill="none"/></g></g></svg>