<svg xmlns="http://www.w3.org/2000/svg" xmlns:xlink="http://www.w3.org/1999/xlink" width="127.79" height="135.07" viewBox="0 0 127.79 135.07"><defs><linearGradient id="a" x1="0.567" y1="-1.227" x2="0.448" y2="1.852" gradientUnits="objectBoundingBox"><stop offset="0" stop-color="#d8d8d8"/><stop offset="0.3" stop-color="#ebebeb"/><stop offset="0.94" stop-color="#fff"/><stop offset="1" stop-color="#fff"/></linearGradient></defs><g transform="translate(0.011)" style="isolation:isolate"><path d="M107.74,80.72l7-3.93c3.78-2.14-1.16-4.7-4-3.13L103,78.05l-4.7-2.63,2.26-1.26a.88.88,0,0,0,.46-.78.87.87,0,0,0-.45-.78L95.8,70.1,69.47,84.89a.88.88,0,0,0-.45.77.84.84,0,0,0,.44.78l1.7,1L48.05,100.18l-5.28-3-19,10.64a.9.9,0,0,0-.45.78.85.85,0,0,0,.44.78l3.68,2.16-.34.18a2.93,2.93,0,0,0-1.53,2.6,3.08,3.08,0,0,0,.3,1.36L11.1,131.5l6.26,3.57,26.25-8.66.12-.07a11.39,11.39,0,0,0,5.85-.16l2.83,1.67a3.46,3.46,0,0,0,3.54,0l17.44-9.72a.88.88,0,0,0,.46-.78.89.89,0,0,0-.46-.78L70.54,115l25.28-13.91.61.35a3.51,3.51,0,0,0,3.53,0L124.7,87.56a.9.9,0,0,0,0-1.56L120,83.5l-3.77,2.12a3.16,3.16,0,0,0-.76-.59Z" fill="#4b6d96" fill-rule="evenodd" opacity="0.49" style="mix-blend-mode:multiply;isolation:isolate"/><path d="M99,18.45A2.875,2.875,0,0,1,95.36,14a16.56,16.56,0,0,0,3.55-4.43,14.84,14.84,0,0,0,2-5,2.853,2.853,0,0,1,5.66.72,20.65,20.65,0,0,1-2.7,7.15A22.71,22.71,0,0,1,99,18.45Z" fill="#e9e9e9"/><path d="M100.86,19.27a2.864,2.864,0,0,1-3.63-4.43,16.56,16.56,0,0,0,3.55-4.43,14.84,14.84,0,0,0,2-5,2.853,2.853,0,1,1,5.66.72,20.82,20.82,0,0,1-2.69,7.15A22.54,22.54,0,0,1,100.86,19.27Z" fill="#afafaf"/><path d="M23.69,11.33a8.62,8.62,0,0,0-1.26-.44,20.53,20.53,0,0,0-4.35-7A18,18,0,0,0,16.44,13c-.18.22-.37.47-.55.73-1-5.76-.4-10,1.22-13.53L17.8,0C20.49,2.59,22.22,6.74,23.69,11.33Z" fill="#afafaf" fill-rule="evenodd"/><path d="M23,11.57a8.7,8.7,0,0,0-1.26-.45,20.38,20.38,0,0,0-4.35-7,18,18,0,0,0-1.64,9.17c-.18.23-.37.47-.55.73A21.28,21.28,0,0,1,17.11.23C19.8,2.82,21.53,7,23,11.57Z" fill="#4d4d4d" fill-rule="evenodd"/><path d="M34.39,113.16c1,0,1.79-.46,1.79-1s-.8-1-1.79-1-1.79.47-1.79,1S33.4,113.16,34.39,113.16Z" fill="#1f1f1f" fill-rule="evenodd"/><path d="M30.93,111.65c1,0,1.79-.47,1.79-1s-.81-1-1.79-1-1.8.46-1.8,1S29.94,111.65,30.93,111.65Z" fill="#1f1f1f" fill-rule="evenodd"/><path d="M32,112.77c1,0,1.84-.48,1.84-1.06S33,110.64,32,110.64s-1.84.48-1.84,1.07S30.94,112.77,32,112.77Z" fill="#1f1f1f" fill-rule="evenodd"/><path d="M34.35,106.19c2.33,0,4.31,1,5,2.28h.22v.7a2.089,2.089,0,0,1,0,.25c0,1.78-2.33,3.23-5.19,3.23s-5.2-1.45-5.2-3.23v-1h.23C30,107.15,32,106.19,34.35,106.19Z" fill="#4d4d4d" fill-rule="evenodd"/><path d="M34.35,111.45c2.86,0,5.19-1.45,5.19-3.23S37.21,105,34.35,105s-5.2,1.45-5.2,3.23S31.48,111.45,34.35,111.45Z" fill="#7c7c7c" fill-rule="evenodd"/><path d="M44.26,77.77c-1.3,7.61-2.51,16.77-7.2,27.76-.94.56-3.16,4-4.68,5-.79.49-2.19-.05-1.56-1.17A160.05,160.05,0,0,0,40,81.28C40.74,81,43.51,78.1,44.26,77.77Z" fill="#1f1f1f" fill-rule="evenodd"/><path d="M45.82,79c-1.3,7.6-2.51,16.76-7.2,27.75-1.43.85-4.81,3-6.24,3.81A159.22,159.22,0,0,0,41.55,82.5C42.3,82.12,45.07,79.27,45.82,79Z" fill="#4d4d4d" fill-rule="evenodd"/><path d="M36.1,61.8a67.7,67.7,0,0,0,7.5,14.65c4,6.09-2,10.75-7.92,4.09A70.159,70.159,0,0,1,25.33,68.21C21.42,62,33.08,53.37,36.1,61.8Z" fill="#7e7e7e" fill-rule="evenodd"/><path d="M38,62.58a68.15,68.15,0,0,0,7.5,14.65c4,6.09-2,10.75-7.92,4.09A69.7,69.7,0,0,1,27.19,69C23.27,62.79,34.93,54.16,38,62.58Z" fill="#979797" fill-rule="evenodd"/><path d="M34.78,61.48c1.21,1.11.88,3.76-.74,5.92s-3.9,3-5.11,1.89-.87-3.77.74-5.93S33.58,60.36,34.78,61.48Z" fill="#2d3d65" fill-rule="evenodd"/><path d="M35.6,62c1.21,1.11.88,3.77-.74,5.92s-3.9,3-5.11,1.89-.87-3.77.74-5.93S34.4,60.86,35.6,62Z" fill="#5276af" fill-rule="evenodd"/><path d="M45.4,78.27c.78.72.56,2.43-.48,3.83s-2.52,1.9-3.3,1.22-.57-2.44.48-3.83S44.62,77.54,45.4,78.27Z" fill="#73cafc" fill-rule="evenodd"/><path d="M45.93,78.59c.78.72.57,2.44-.48,3.83s-2.52,1.94-3.3,1.22-.57-2.43.48-3.83S45.15,77.87,45.93,78.59Z" fill="#5595c5" fill-rule="evenodd"/><path d="M98.55,79.42c1,0,1.79-.47,1.79-1s-.81-1-1.79-1-1.8.46-1.8,1S97.56,79.42,98.55,79.42Z" fill="#1f1f1f" fill-rule="evenodd"/><path d="M95.08,77.91c1,0,1.79-.47,1.79-1s-.8-1-1.79-1-1.79.47-1.79,1S94.09,77.91,95.08,77.91Z" fill="#1f1f1f" fill-rule="evenodd"/><path d="M96.11,79c1,0,1.84-.48,1.84-1.07s-.83-1.06-1.84-1.06-1.85.48-1.85,1.06S95.09,79,96.11,79Z" fill="#1f1f1f" fill-rule="evenodd"/><path d="M98.5,72.45c2.34,0,4.31,1,5,2.28h.21v.7a2,2,0,0,1,0,.25c0,1.78-2.33,3.22-5.2,3.22s-5.2-1.44-5.2-3.22v-1h.23C94.19,73.41,96.16,72.45,98.5,72.45Z" fill="#4d4d4d" fill-rule="evenodd"/><path d="M98.5,77.7c2.86,0,5.2-1.45,5.2-3.22s-2.34-3.23-5.2-3.23-5.2,1.45-5.2,3.23S95.64,77.7,98.5,77.7Z" fill="#7c7c7c" fill-rule="evenodd"/><path d="M108.41,44c-1.3,7.6-2.51,16.76-7.19,27.76-.94.55-3.17,4-4.69,5-.79.48-2.19,0-1.56-1.18a159.14,159.14,0,0,0,9.18-28.05C104.89,47.21,107.67,44.36,108.41,44Z" fill="#1f1f1f" fill-rule="evenodd"/><path d="M110,45.2c-1.3,7.6-2.5,16.77-7.19,27.76-1.43.84-4.81,3-6.25,3.81a159.51,159.51,0,0,0,9.18-28.06C106.46,48.38,109.23,45.53,110,45.2Z" fill="#4d4d4d" fill-rule="evenodd"/><path d="M88.23,58.74c6.55-3,6.16-2.37,11.7-5.54,10.28-5.89,13.75-14.19,2.48-9.26-10.68,4.67-11.62,3.73-18.64,5.61C75.82,51.67,80.74,62.14,88.23,58.74Z" fill="#e1dcdc" fill-rule="evenodd"/><path d="M89.69,59.71c6.55-2.5,12.57-5.15,17.65-9.81s5.2-8.77-3.46-5c-10.68,4.67-11.63,3.73-18.65,5.6C77.29,52.65,82,62.65,89.69,59.71Z" fill="#979797" fill-rule="evenodd"/><path d="M89.38,51.76c-1.64-8.78-.09-17.47.78-26.39,1.3-13.27-15-10.59-15.31,1.71a86.21,86.21,0,0,0,3.94,27.67C81.25,62.6,90.89,59.85,89.38,51.76Z" fill="#e1dcdc" fill-rule="evenodd"/><path d="M90.21,53c-1.64-8.78-.1-17.47.77-26.39,1.3-13.27-13.78-10.56-14.3,1.73a80.65,80.65,0,0,0,3.41,27.39C82.5,63.62,91.72,61.11,90.21,53Z" fill="#7e7e7e" fill-rule="evenodd"/><path d="M87.27,19.9c1.5,1.39,1.09,4.7-.92,7.39S81.48,31,80,29.64s-1.08-4.7.93-7.39S85.77,18.51,87.27,19.9Z" fill="#2d3d65" fill-rule="evenodd"/><path d="M88.3,20.53c1.5,1.39,1.08,4.69-.93,7.38S82.5,31.66,81,30.27s-1.09-4.7.92-7.39S86.79,19.14,88.3,20.53Z" fill="#5276af" fill-rule="evenodd"/><path d="M88.24,51.87c1,1,.76,3.26-.64,5.13s-3.39,2.6-4.43,1.64-.76-3.27.64-5.14S87.2,50.9,88.24,51.87Z" fill="#73cafc" fill-rule="evenodd"/><path d="M89,52.3c1,1,.76,3.27-.64,5.13S84.93,60,83.88,59.07s-.76-3.27.64-5.13S87.91,51.33,89,52.3Z" fill="#5595c5" fill-rule="evenodd"/><path d="M109,44.54c.5.46.36,1.56-.31,2.45s-1.61,1.24-2.11.78-.36-1.56.31-2.45S108.48,44.08,109,44.54Z" fill="#73cafc" fill-rule="evenodd"/><path d="M109.32,44.75c.5.46.36,1.56-.31,2.45s-1.61,1.24-2.11.78-.36-1.56.31-2.45S108.82,44.29,109.32,44.75Z" fill="#5595c5" fill-rule="evenodd"/><path d="M89,13.63c6,1.63,2.49,2.65-1.9,14.22-21,12-33.8,17-50.67,31.2l6.56,23-12.7-8.39a9.159,9.159,0,0,1-1.33-.76h0c-8-5.51-14.68-18.91-9.23-26.56C33.73,30.48,45.66,34.13,58,28.52,69.49,23.2,81.59,11.61,89,13.63Z" fill="#7e7e7e" fill-rule="evenodd"/><path d="M87.72,11.23c7.25.65,13.52,5.34,18,9.59C86.16,38.61,37,62.07,35.61,55.24,28.2,63,16.76,57.71,19.39,46.64,22.45,41.22,82.6,10.76,87.72,11.23Z" fill-rule="evenodd" fill="url(#a)"/><path d="M101.51,24.4c5.88,1.93,10.34,6.91,3.81,13.12-39.51,14.61-17.84,24.63-46,42.87-20.56,13.32-29.94-16-23.69-25.15,20.33-9,27.31-10.39,37.34-18.47C84.53,31.51,88,20,101.51,24.4Z" fill="#979797" fill-rule="evenodd"/><path d="M33.37,37.72c5.14-.91,9.86.42,11.81,3.07l.47-.09.28,1.55a4.27,4.27,0,0,1,.13.54c.7,3.92-3.86,8-10.17,9.13s-12-1.14-12.69-5.07l-.38-2.09.51-.09C24.25,41.52,28.22,38.64,33.37,37.72Z" fill="#9e9e9e" fill-rule="evenodd"/><path d="M32.9,35.08c6.31-1.12,12,1.15,12.69,5.07s-3.86,8-10.17,9.13-12-1.15-12.69-5.07S26.58,36.21,32.9,35.08Z" fill="#5595c5" fill-rule="evenodd"/><path d="M32.43,32.32c6.31-1.12,12,1.15,12.69,5.07s-3.86,8-10.17,9.13-12-1.15-12.69-5.07S26.11,33.44,32.43,32.32Z" fill="#afafaf" fill-rule="evenodd"/><path d="M109.29,27.45a12.44,12.44,0,0,1-3.79,7.78C66,49.85,87,55.48,58.6,73.41c-15.77,10-25.67-7.26-23-18.16h0c5.28-6,62.63-37.09,68.26-35.24C106.9,21,108.92,24,109.29,27.45Z" fill="#afafaf" fill-rule="evenodd"/><path d="M115.49,88.77c1,0,1.8-.46,1.8-1s-.81-1-1.8-1-1.79.46-1.79,1S114.51,88.77,115.49,88.77Z" fill="#1f1f1f" fill-rule="evenodd"/><path d="M112,87.26c1,0,1.79-.47,1.79-1s-.8-1-1.79-1-1.79.47-1.79,1S111,87.26,112,87.26Z" fill="#1f1f1f" fill-rule="evenodd"/><path d="M113.06,88.38c1,0,1.84-.48,1.84-1.06s-.83-1.07-1.84-1.07-1.85.48-1.85,1.07S112,88.38,113.06,88.38Z" fill="#1f1f1f" fill-rule="evenodd"/><path d="M115.45,81.8c2.34,0,4.31,1,5,2.28h.21v.7a2.11,2.11,0,0,1,0,.25c0,1.78-2.33,3.23-5.2,3.23s-5.2-1.45-5.2-3.23v-1h.23C111.14,82.76,113.11,81.8,115.45,81.8Z" fill="#4d4d4d" fill-rule="evenodd"/><path d="M115.45,87.06c2.86,0,5.2-1.45,5.2-3.23s-2.34-3.23-5.2-3.23-5.2,1.45-5.2,3.23S112.59,87.06,115.45,87.06Z" fill="#7c7c7c" fill-rule="evenodd"/><path d="M125.36,53.38c-1.3,7.6-2.51,16.76-7.19,27.76-.94.55-3.17,4-4.69,5-.79.49-2.19-.05-1.56-1.17a160.348,160.348,0,0,0,9.18-28.06C121.84,56.56,124.61,53.71,125.36,53.38Z" fill="#1f1f1f" fill-rule="evenodd"/><path d="M126.92,54.55c-1.3,7.61-2.51,16.77-7.19,27.76-1.43.85-4.81,3-6.25,3.81a159.241,159.241,0,0,0,9.18-28.06C123.4,57.73,126.18,54.88,126.92,54.55Z" fill="#4d4d4d" fill-rule="evenodd"/><path d="M105.18,68.09c6.55-3,6.16-2.37,11.7-5.54,10.28-5.88,13.75-14.19,2.48-9.26C108.68,58,107.74,57,100.72,58.9,92.77,61,97.69,71.49,105.18,68.09Z" fill="#e1dcdc" fill-rule="evenodd"/><path d="M106.64,69.06c6.55-2.5,12.57-5.15,17.64-9.81s5.21-8.77-3.45-5c-10.68,4.67-11.63,3.73-18.65,5.61C94.24,62,99,72,106.64,69.06Z" fill="#979797" fill-rule="evenodd"/><path d="M106.33,61.11c-1.64-8.78-.09-17.47.78-26.39,1.3-13.27-15.06-10.59-15.31,1.71A86.21,86.21,0,0,0,95.74,64.1C98.2,72,107.84,69.2,106.33,61.11Z" fill="#dcdcdb" fill-rule="evenodd"/><path d="M107.16,62.37c-1.64-8.78-.1-17.47.77-26.39,1.3-13.27-13.78-10.56-14.3,1.73A80.65,80.65,0,0,0,97,65.1C99.45,73,108.67,70.46,107.16,62.37Z" fill="#afafaf" fill-rule="evenodd"/><path d="M104.22,29.25c1.5,1.39,1.09,4.7-.92,7.39S98.43,40.39,96.92,39s-1.08-4.69.93-7.38S102.72,27.86,104.22,29.25Z" fill="#73cafc" fill-rule="evenodd"/><path d="M105.25,29.88c1.5,1.39,1.08,4.7-.93,7.39S99.45,41,98,39.62s-1.09-4.7.92-7.39S103.74,28.49,105.25,29.88Z" fill="#5595c5" fill-rule="evenodd"/><path d="M105.19,61.22c1,1,.76,3.26-.64,5.13S101.16,69,100.12,68s-.76-3.27.64-5.14S104.15,60.25,105.19,61.22Z" fill="#73cafc" fill-rule="evenodd"/><path d="M105.9,61.65c1,1,.76,3.27-.64,5.14s-3.38,2.6-4.43,1.63-.76-3.26.64-5.13S104.86,60.69,105.9,61.65Z" fill="#5595c5" fill-rule="evenodd"/><path d="M125.93,53.89c.5.47.36,1.56-.31,2.45s-1.61,1.24-2.11.78-.36-1.55.31-2.45S125.43,53.43,125.93,53.89Z" fill="#73cafc" fill-rule="evenodd"/><path d="M126.27,54.1c.5.46.36,1.56-.31,2.45s-1.61,1.24-2.11.78-.36-1.56.31-2.45S125.77,53.64,126.27,54.1Z" fill="#5595c5" fill-rule="evenodd"/><path d="M59.12,58.76a.8.8,0,0,0,.28-.33,1.49,1.49,0,0,0,.12-.67v-3a1,1,0,0,0-.12-.61c-.06-.07-.15-.07-.28,0V53.4h.05c.44-.27.77-.33,1-.18s.3.47.3,1v2.74a3.4,3.4,0,0,1-.3,1.52,2.53,2.53,0,0,1-1,1h0Zm-.39.24.3-.18.09-.06v.72l-1.32.78V54.18l1.32-.78v.73a.45.45,0,0,0-.12.06l-.27.16Z" fill="#5276af"/><path d="M62.55,56.73h0a.7.7,0,0,0,.33-.41,3.08,3.08,0,0,0,.08-.79V52.7a1.45,1.45,0,0,0-.08-.58c-.06-.11-.16-.11-.32,0h0v-.8h0c.47-.28.8-.34,1-.17a1.363,1.363,0,0,1,.31,1.06V55a3.35,3.35,0,0,1-.32,1.52,2.54,2.54,0,0,1-1,1h0ZM62.13,56a2,2,0,0,0,.08.7c.06.1.17.11.34,0v.8c-.47.28-.81.33-1,.16a1.525,1.525,0,0,1-.33-1.13V53.78a2.68,2.68,0,0,1,1.35-2.47v.8a.77.77,0,0,0-.32.39,1.84,1.84,0,0,0-.1.68Z" fill="#5276af"/><path d="M65.87,55.57c-.38.22-.68.25-.89.07a1.588,1.588,0,0,1-.33-1.2V51.8A3.17,3.17,0,0,1,65,50.32a2.67,2.67,0,0,1,1-1.06q.9-.52,1.14,0a2.71,2.71,0,0,1,.14,1v.43l-.86.51v-.64a1,1,0,0,0-.09-.53c-.06-.08-.17-.07-.33,0a.83.83,0,0,0-.35.41,2.43,2.43,0,0,0-.1.77v2.64a2.36,2.36,0,0,0,.09.78q.09.18.36,0a.83.83,0,0,0,.36-.47,2.77,2.77,0,0,0,.11-.92v-.82l-.46.28v-.67l1.27-.75v3.31l-.41.25-.14-.52a1.76,1.76,0,0,1-.32.68A2.11,2.11,0,0,1,65.87,55.57Z" fill="#5276af"/><path d="M45.29,61.56l.21-.13a1.23,1.23,0,0,1,.71-.23.43.43,0,0,1,.31.36,3.63,3.63,0,0,1,.08.85,2.86,2.86,0,0,1-.12.91A1.4,1.4,0,0,1,46,64a.3.3,0,0,1,.44.17,4.72,4.72,0,0,1,.13,1.46,10.84,10.84,0,0,0,0,1.24l-.92.55V65.26c0-.27,0-.43-.1-.48s-.15,0-.29,0v-.74a.74.74,0,0,0,.24-.22.8.8,0,0,0,.12-.35,4.6,4.6,0,0,0,0-.61h0a1.33,1.33,0,0,0-.08-.6c-.05-.06-.15-.05-.31,0Zm-.1,3.28L44.9,65v2.87l-.93.54V62.33l1.32-.77v.71h-.08l-.31.19v1.78l.37-.22h0v.74Z" fill="#fff"/><path d="M48.73,64.88h0a.7.7,0,0,0,.33-.41,2.69,2.69,0,0,0,.08-.79V60.84a1.31,1.31,0,0,0-.08-.58c-.05-.1-.16-.1-.32,0h0v-.8h0c.47-.27.81-.33,1-.17a1.414,1.414,0,0,1,.31,1.07v2.78a3.25,3.25,0,0,1-.32,1.52,2.64,2.64,0,0,1-1,1h0Zm-.41-.72a1.77,1.77,0,0,0,.08.7c.05.11.16.12.33,0v.8c-.46.27-.8.32-1,.16a1.478,1.478,0,0,1-.33-1.14V61.92a2.67,2.67,0,0,1,1.35-2.46v.8a.74.74,0,0,0-.32.38,2.14,2.14,0,0,0-.09.69Z" fill="#fff"/><path d="M53.51,58.27A2.06,2.06,0,0,1,53,59.79c.43-.11.65.24.65,1.05V61a3.15,3.15,0,0,1-.32,1.5,2.6,2.6,0,0,1-1,1h0v-.72a.86.86,0,0,0,.3-.36,2,2,0,0,0,.11-.75v-.49a1.27,1.27,0,0,0-.09-.6c-.06-.09-.17-.09-.32,0v-.7a.6.6,0,0,0,.24-.29,2.14,2.14,0,0,0,.07-.67v-.37c0-.23,0-.37-.1-.41a.2.2,0,0,0-.21,0V57.4c.44-.25.75-.33.94-.24s.28.4.28.89Zm-1.22,5.24L51,64.3V58.22l1.31-.77h0v.74H52.2l-.31.18v1.74l.34-.21h.08v.7h0l-.39.23V63l.33-.2.09-.05Z" fill="#fff"/><path d="M55.62,60.81h0A.72.72,0,0,0,56,60.4a3,3,0,0,0,.08-.79V56.78A1.45,1.45,0,0,0,56,56.2c-.06-.1-.17-.11-.32,0h0v-.81h0c.47-.28.81-.33,1-.17A1.35,1.35,0,0,1,57,56.27v2.78a3.35,3.35,0,0,1-.32,1.52,2.55,2.55,0,0,1-1,1h0Zm-.41-.71a2,2,0,0,0,.08.7c.06.11.16.11.33,0v.81c-.46.27-.8.32-1,.16a1.47,1.47,0,0,1-.32-1.14V57.86a2.69,2.69,0,0,1,1.34-2.47v.81a.72.72,0,0,0-.31.38,1.84,1.84,0,0,0-.1.68Z" fill="#fff"/><path d="M43.52,37.12a1.419,1.419,0,0,1,0,.2c.62,3.46-3.4,7.07-9,8.06-4.1.73-7.9-.17-9.87-2.07h0a5,5,0,0,1-.72-.88,29.88,29.88,0,0,1-3.34-6.73C26.34,34.21,33,26,38.74,24.56,41.55,28,43.42,34.32,43.52,37.12Z" fill="#363636" fill-rule="evenodd"/><path d="M20,11.26l-6.54,3.46a3.32,3.32,0,0,0-1.65,1.8l-.17,5.62c0,.59.51,1.4-.57,2.25L.47,32.69c-.83.66-.42,3.7.18,4.49l4.58,6L9,45.33c.62.36,11.81-2.48,13.1-2.73l9.68-1.5,10.47-6.22C43.73,34,44,31.7,42.7,29.2L36.77,17.51a6.94,6.94,0,0,0-3.55-3.13l-8.91-4.09C22.79,9.6,21.11,10.64,20,11.26Z" fill="#cacaca" fill-rule="evenodd"/><path d="M55.77,125.14c1,0,1.79-.46,1.79-1s-.8-1-1.79-1-1.79.46-1.79,1S54.78,125.14,55.77,125.14Z" fill="#1f1f1f" fill-rule="evenodd"/><path d="M52.31,123.63c1,0,1.79-.47,1.79-1s-.8-1-1.79-1-1.79.47-1.79,1S51.32,123.63,52.31,123.63Z" fill="#1f1f1f" fill-rule="evenodd"/><path d="M53.33,124.75c1,0,1.84-.48,1.84-1.06s-.82-1.07-1.84-1.07-1.84.48-1.84,1.07S52.32,124.75,53.33,124.75Z" fill="#1f1f1f" fill-rule="evenodd"/><path d="M55.73,118.17c2.33,0,4.31,1,5,2.28h.22v.7a2.089,2.089,0,0,1,0,.25c0,1.78-2.32,3.23-5.19,3.23s-5.2-1.45-5.2-3.23v-1h.23C51.41,119.13,53.39,118.17,55.73,118.17Z" fill="#4d4d4d" fill-rule="evenodd"/><path d="M55.73,123.42c2.86,0,5.19-1.44,5.19-3.22s-2.33-3.2-5.19-3.2-5.2,1.45-5.2,3.23S52.86,123.42,55.73,123.42Z" fill="#7c7c7c" fill-rule="evenodd"/><path d="M65.64,89.75c-1.3,7.6-2.51,16.76-7.2,27.76-.94.55-3.16,4-4.68,5-.79.49-2.19,0-1.56-1.17a159.5,159.5,0,0,0,9.17-28.06C62.12,92.93,64.89,90.08,65.64,89.75Z" fill="#1f1f1f" fill-rule="evenodd"/><path d="M67.2,90.92c-1.3,7.61-2.51,16.77-7.2,27.76-1.43.85-4.81,3-6.24,3.81a159.22,159.22,0,0,0,9.17-28.06C63.68,94.1,66.45,91.25,67.2,90.92Z" fill="#4d4d4d" fill-rule="evenodd"/><path d="M57.48,73.78A67.929,67.929,0,0,0,65,88.43c4,6.09-2,10.74-7.92,4.08A69.44,69.44,0,0,1,46.71,80.18C42.8,74,54.46,65.35,57.48,73.78Z" fill="#dcdcdb" fill-rule="evenodd"/><path d="M59.33,74.56a68.39,68.39,0,0,0,7.5,14.65c4,6.09-2,10.75-7.92,4.09A69.7,69.7,0,0,1,48.57,81C44.65,74.76,56.31,66.13,59.33,74.56Z" fill="#afafaf" fill-rule="evenodd"/><path d="M56.16,73.45c1.21,1.12.88,3.77-.74,5.93s-3.9,3-5.11,1.89-.87-3.77.74-5.93S55,72.34,56.16,73.45Z" fill="#73cafc" fill-rule="evenodd"/><path d="M57,74c1.2,1.12.87,3.77-.75,5.93s-3.9,3-5.11,1.89-.87-3.77.74-5.93S55.78,72.84,57,74Z" fill="#5595c5" fill-rule="evenodd"/><path d="M66.78,90.24c.78.72.57,2.44-.48,3.83S63.78,96,63,95.3s-.57-2.44.48-3.84S66,89.52,66.78,90.24Z" fill="#73cafc" fill-rule="evenodd"/><path d="M67.31,90.57c.78.72.57,2.43-.48,3.83s-2.52,1.94-3.3,1.22S63,93.18,64,91.79,66.53,89.85,67.31,90.57Z" fill="#5595c5" fill-rule="evenodd"/><path d="M.36,32.8l6.72,3.65,11.5-8.76-7-4a1.79,1.79,0,0,1-.57.68L.47,32.69Z" fill="#f3f3f3" fill-rule="evenodd"/><path d="M79.09,41.72c1.9,1.75,1.37,5.92-1.17,9.31s-6.13,4.72-8,3-1.38-5.92,1.16-9.31S77.2,40,79.09,41.72Z" fill="#666" fill-rule="evenodd"/><path d="M78.7,42.25c1.73,1.6,1.25,5.41-1.07,8.51S72,55.07,70.29,53.47,69,48.06,71.36,45,77,40.65,78.7,42.25Z" fill="#ebebeb" fill-rule="evenodd"/><path d="M79.14,42.51c1.73,1.6,1.25,5.41-1.07,8.51s-5.6,4.31-7.33,2.71-1.26-5.41,1.06-8.51S77.41,40.91,79.14,42.51Z" fill="#979797" fill-rule="evenodd"/><path d="M73.94,45.8c-.48.66-.53,1.44-.11,1.74s1.14,0,1.61-.68.53-1.44.11-1.74S74.41,45.13,73.94,45.8Z" fill="#7e7e7e" fill-rule="evenodd"/><path d="M74.06,45.89c-.33.47-.37,1-.08,1.24s.81,0,1.15-.48.37-1,.08-1.24S74.4,45.42,74.06,45.89Z" fill="#585857" fill-rule="evenodd"/><path d="M74,47.11a1.17,1.17,0,0,0,.91-.56c.33-.46.37-1,.11-1.22a1.16,1.16,0,0,0-.92.56C73.74,46.35,73.69,46.88,74,47.11Z" fill="#3e3e3d" fill-rule="evenodd"/><path d="M73.24,51.73,76.59,50a1.07,1.07,0,0,0,.57-.93v-1a.53.53,0,0,0-.25-.46.51.51,0,0,0-.52,0l-3.33,1.74a1,1,0,0,0-.57.91v1a.48.48,0,0,0,.25.46A.51.51,0,0,0,73.24,51.73Z" fill="#979797" fill-rule="evenodd"/><path d="M73.5,51.05l2.44-1.27a.76.76,0,0,0,.41-.68v-.73a.39.39,0,0,0-.18-.33.37.37,0,0,0-.38,0l-2.43,1.27A.74.74,0,0,0,73,50v.75a.39.39,0,0,0,.18.33A.37.37,0,0,0,73.5,51.05Z" fill="#7e7e7e" fill-rule="evenodd"/><path d="M73.31,50.7l2.68-1.4.03-1.04-2.69,1.41-.04,1.02Z" fill="#3e3e3d" fill-rule="evenodd"/><path d="M11.76,16.52l4.22,4.61,8.61.53,6.52,3.98L19.67,28.46,7.08,36.45l11.5-8.75-7.02-4.01Z" fill="#363636" fill-rule="evenodd"/><path d="M26.25,23.01l3.22,2.63L18.58,27.7Z" fill="#88f1f1" fill-rule="evenodd"/><path d="M7.08,36.45l2.08,8.91H9L5.23,43.17l-4.58-6c-.57-.75-1-3.55-.29-4.38Z" fill="#979797" fill-rule="evenodd"/><path d="M6.7,37.26a3.62,3.62,0,0,1-2.41,2.57L2.21,38.65c-1.86-1.56-1.85-3.51-2-5.1Z" fill="#363636" fill-rule="evenodd"/><path d="M24.59,21.66l11-5.77a8.5,8.5,0,0,0-2.33-1.51l-8.91-4.09c-1.52-.69-3.2.35-4.36,1l-6.54,3.46a3.35,3.35,0,0,0-1.65,1.8L16,21.13l8.61.53ZM11.76,16.52Z" fill="#f3f3f3" fill-rule="evenodd"/><path d="M29.34,16.15l.58.36a15.2,15.2,0,0,1,7.72-1.89,17.55,17.55,0,0,1-2,10.08l.61.46c3.59-4.23,4.09-8.78,3.72-13.42-.15,0-.44-.36-.59-.36C35.62,11.32,32.7,13.67,29.34,16.15Z" fill="#afafaf" fill-rule="evenodd"/><path d="M28.37,15.7c.33.14.65.29,1,.45a15.18,15.18,0,0,1,7.72-1.89,14.92,14.92,0,0,1-1.69,9.28c.12.41.23.83.33,1.27,3.59-4.24,4.09-8.79,3.71-13.43C35.46,11.16,31.86,13.12,28.37,15.7Z" fill="#4d4d4d" fill-rule="evenodd"/><path d="M31.77,41.09l-9.93-7.01.25,8.52Z" fill="#afafaf" fill-rule="evenodd"/></g></svg>